<svg width="64" height="64" viewBox="0 0 64 64" fill="none" xmlns="http://www.w3.org/2000/svg">
<path d="M62.0294 51.0974L56.127 40.8746V18.6669C56.127 17.4747 55.1612 16.5088 53.969 16.5088H50.5019V19.9724H52.1845C52.4486 19.9724 52.6637 20.1874 52.6637 20.4553V39.9615H11.332V20.4553C11.332 20.1874 11.547 19.9724 11.8149 19.9724H13.6069V16.5088H10.0266C8.83823 16.5088 7.86865 17.4747 7.86865 18.6669V40.8727L1.96628 51.0955C1.8116 51.3634 1.83989 51.6992 2.03796 51.935L3.03206 53.1235C3.43574 53.6064 4.03182 53.8875 4.6562 53.8875H59.3395C59.9695 53.8875 60.5656 53.6064 60.9693 53.1235L61.9596 51.9388C62.1576 51.6992 62.1859 51.3634 62.0313 51.0955L62.0294 51.0974ZM40.559 50.4296L39.48 48.5525C39.1103 47.9017 38.418 47.498 37.6672 47.498H26.3058C25.5588 47.498 24.8665 47.9017 24.493 48.5525L23.4178 50.4296H6.35203L10.3945 43.4213H53.5993L57.6417 50.4296H40.559Z" fill="white"/>
<path d="M62.0294 51.0974L56.127 40.8746V18.6669C56.127 17.4747 55.1612 16.5088 53.969 16.5088H50.5019V19.9724H52.1845C52.4486 19.9724 52.6637 20.1874 52.6637 20.4553V39.9615H11.332V20.4553C11.332 20.1874 11.547 19.9724 11.8149 19.9724H13.6069V16.5088H10.0266C8.83823 16.5088 7.86865 17.4747 7.86865 18.6669V40.8727L1.96628 51.0955C1.8116 51.3634 1.83989 51.6992 2.03796 51.935L3.03206 53.1235C3.43574 53.6064 4.03182 53.8875 4.6562 53.8875H59.3395C59.9695 53.8875 60.5656 53.6064 60.9693 53.1235L61.9596 51.9388C62.1576 51.6992 62.1859 51.3634 62.0313 51.0955L62.0294 51.0974ZM40.559 50.4296L39.48 48.5525C39.1103 47.9017 38.418 47.498 37.6672 47.498H26.3058C25.5588 47.498 24.8665 47.9017 24.493 48.5525L23.4178 50.4296H6.35203L10.3945 43.4213H53.5993L57.6417 50.4296H40.559Z" fill="white"/>
<path d="M46.3454 10.8146L46.3284 35.1671V35.7972H40.7033V17.4286C37.506 19.432 34.733 22.7956 32.5468 25.5178L32.0563 26.129L31.5659 25.5178C29.3796 22.7975 26.5991 19.4339 23.3999 17.4286V35.7953H17.7748V35.1652L17.7578 10.8127V10.1128L18.4539 10.1864C19.7404 10.3222 21.0476 10.5523 22.2002 10.9504C24.1167 11.6088 26.2143 12.9331 28.0591 14.3781C29.6286 15.61 31.0509 16.9588 32.0563 18.1209C33.0617 16.9626 34.4803 15.6138 36.0478 14.3838C37.8908 12.9369 39.9865 11.6107 41.9011 10.9504C43.0556 10.5523 44.3609 10.3222 45.6493 10.1864L46.3454 10.1128V10.8127V10.8146Z" fill="#7B9EFF" stroke="#7B9EFF" stroke-width="1.13967"/>
</svg>
