<svg width="183" height="99" viewBox="0 0 183 99" fill="none" xmlns="http://www.w3.org/2000/svg">
<path d="M104.993 0.0644504C102.831 0.0644506 99.5549 0.325494 96.803 1.43493C94.7719 2.28332 92.8062 3.78432 91.2993 5.22006C89.7923 3.78432 87.8922 2.28332 85.7955 1.43493C83.1092 0.325496 79.7676 0.0644526 77.6709 0.0644528L74.1328 0.0644531L74.1328 35.9579L77.6709 35.9579L77.6709 3.58854C79.5055 3.58854 82.3229 3.84958 84.4851 4.69797C87.4335 5.87267 90.382 9.13571 91.2993 10.3104C92.2166 9.13571 95.165 5.93793 98.1134 4.69797C100.276 3.84958 103.093 3.58854 104.928 3.58854L104.928 35.9579L108.466 35.9579L108.466 0.0644501L104.928 0.0644504L104.993 0.0644504Z" fill="white"/>
<path d="M91.3552 14.0938C89.7827 11.8097 86.179 8.22037 83.2306 7.04567C82.3788 6.71937 81.3305 6.45833 80.3477 6.39307L80.3477 36.0215L83.8858 36.0215L83.8858 11.5487C86.8997 13.376 89.455 16.9653 91.3552 19.7715C93.2553 17.0306 95.8106 13.376 98.8245 11.5487L98.8245 36.0215L102.363 36.0215L102.363 6.39306C101.38 6.52359 100.331 6.71937 99.4797 7.04567C96.5313 8.22037 92.9276 11.8097 91.4207 14.0938" fill="white"/>
<path d="M111.143 0.0652571L111.143 38.5692L97.7113 38.5692C95.0249 38.5692 92.7972 39.6786 91.2903 41.4406C89.8488 39.6786 87.5556 38.5692 84.8692 38.5692L71.503 38.5692L71.503 -3.08133e-07L67.9648 0L67.9648 42.028L84.8692 42.028C87.5556 42.028 89.5212 43.8553 89.5212 46.4005L93.0593 46.4005C93.0593 43.8553 95.0249 42.028 97.7113 42.028L114.616 42.028L114.616 -4.0628e-06L111.143 -3.76037e-06L111.143 0.0652571Z" fill="white"/>
<path d="M32.374 93.3745C31.8606 92.8611 31.1937 92.6067 30.3755 92.6067C29.4886 92.6067 28.7346 92.9023 28.0952 93.4982C27.4787 94.0735 27.167 94.8459 27.167 95.8085C27.167 96.6107 27.4374 97.28 27.9691 97.814C28.5031 98.3274 29.1815 98.5818 30.0042 98.5818C30.5795 98.5818 31.102 98.4512 31.5741 98.183C32.0462 97.9194 32.4244 97.5458 32.7132 97.0737C33.018 96.5809 33.1738 96.0171 33.1738 95.3799C33.1738 94.5571 32.9103 93.8924 32.3717 93.3745H32.374ZM11.9861 76.7715L11.1519 80.8374H18.0525L14.5713 98.3366H19.5651L23.0761 80.8374H29.9447L30.7743 76.7715H11.9861ZM4.31088 76.7715L0 98.3366H5.01904L9.3345 76.7715H4.31088Z" fill="#7B9EFF"/>
<path d="M99.0805 82.5633C99.697 81.9468 100.428 81.4746 101.267 81.1446C102.11 80.8191 103.034 80.6518 104.042 80.6518C105.11 80.6518 106.093 80.8695 106.994 81.3004C107.902 81.7153 108.72 82.3364 109.46 83.1798L112.666 80.2209C111.635 78.9672 110.365 78.0252 108.844 77.388C107.347 76.7302 105.663 76.4048 103.792 76.4048C102.108 76.4048 100.561 76.6798 99.1401 77.2345C97.7215 77.7685 96.4839 78.5409 95.4113 79.5448C94.364 80.5487 93.5458 81.7313 92.9499 83.0882C92.3747 84.445 92.0859 85.9325 92.0859 87.5529C92.0859 89.1733 92.377 90.6654 92.9499 92.0245C93.5458 93.3768 94.364 94.5571 95.4113 95.5679C96.4633 96.5718 97.6917 97.3556 99.1103 97.9103C100.55 98.4443 102.099 98.7079 103.763 98.7079C105.653 98.7079 107.347 98.3824 108.844 97.7246C110.365 97.0668 111.635 96.1134 112.666 94.8597L109.46 91.9007C108.72 92.7602 107.902 93.4089 106.994 93.8443C106.093 94.2546 105.108 94.4609 104.042 94.4609C103.032 94.4609 102.11 94.2958 101.267 93.9635C100.428 93.6381 99.697 93.1659 99.0805 92.5494C98.464 91.9328 97.9827 91.2017 97.6344 90.3628C97.3021 89.5194 97.1371 88.5866 97.1371 87.5552C97.1371 86.5238 97.3021 85.5978 97.6344 84.7521C97.9827 83.9133 98.464 83.1821 99.0805 82.5656V82.5633Z" fill="white"/>
<path d="M58.1176 76.7715L50.1765 90.1611L42.1002 76.7715H37.9727V98.3366H42.6548V85.6643L49.0008 96.0561H51.217L57.5675 85.442L57.5928 98.3366H62.2772L62.2451 76.7715H58.1176Z" fill="white"/>
<path d="M86.3334 79.5725C85.2861 78.5686 84.0439 77.7847 82.6092 77.2301C81.1906 76.6754 79.6299 76.4004 77.9271 76.4004C76.2243 76.4004 74.6796 76.6754 73.2449 77.2301C71.8057 77.7847 70.5521 78.5663 69.4841 79.5725C68.4161 80.5764 67.5888 81.759 66.9929 83.1158C66.4177 84.4727 66.1289 85.9487 66.1289 87.5508C66.1289 89.1529 66.42 90.6335 66.9929 91.9903C67.5888 93.3426 68.407 94.5229 69.4543 95.5337C70.5223 96.5376 71.7759 97.3214 73.2152 97.8761C74.6704 98.4307 76.2564 98.7058 77.9592 98.7058C79.662 98.7058 81.1906 98.4307 82.6115 97.8761C84.0462 97.3214 85.2906 96.549 86.3357 95.5658C87.4037 94.555 88.2356 93.3747 88.8315 92.0224C89.4273 90.6449 89.723 89.1575 89.723 87.5508C89.723 85.9441 89.4273 84.4521 88.8315 83.1158C88.2356 81.759 87.4014 80.5786 86.3357 79.5725H86.3334ZM84.147 90.3585C83.8216 91.1973 83.3449 91.9284 82.7284 92.545C82.1165 93.1615 81.3969 93.6337 80.5741 93.9591C79.7766 94.2915 78.8897 94.4565 77.9271 94.4565C76.9645 94.4565 76.0684 94.2915 75.2434 93.9591C74.4252 93.6337 73.7056 93.1615 73.0891 92.545C72.4932 91.9284 72.0211 91.1973 71.6751 90.3585C71.3428 89.4944 71.1777 88.5616 71.1777 87.5508C71.1777 86.54 71.3428 85.5935 71.6751 84.7477C72.0211 83.9089 72.5047 83.1777 73.1212 82.5612C73.7377 81.9447 74.4481 81.4725 75.2457 81.1425C76.0684 80.817 76.96 80.6497 77.9294 80.6497C78.8988 80.6497 79.788 80.8147 80.6085 81.1425C81.4313 81.4748 82.1371 81.9447 82.733 82.5612C83.3495 83.1777 83.8262 83.9089 84.1516 84.7477C84.4977 85.5912 84.6742 86.524 84.6742 87.5508C84.6742 88.5776 84.4977 89.515 84.1516 90.3585H84.147Z" fill="white"/>
<path d="M135.326 76.7715H130.059L124.401 85.4901H120.817V76.7715H115.859V98.3366H120.817V89.6477H124.257L129.876 98.3366H135.544L128.276 87.1839L135.326 76.7715Z" fill="white"/>
<path d="M172.944 76.7715H168.012L158.402 98.3366H163.515L165.438 93.716H175.435L177.346 98.3366H182.583L172.944 76.7715ZM167.013 89.9228L170.446 81.6694L173.861 89.9228H167.013Z" fill="white"/>
<path d="M154.886 88.0807C154.311 87.6612 153.637 87.3358 152.86 87.102C153.234 86.9209 153.58 86.7124 153.901 86.4763C155.212 85.493 155.87 84.1133 155.87 82.3485C155.87 80.5837 155.171 79.1879 153.777 78.2252C152.379 77.2557 150.431 76.7744 147.924 76.7744H137.879V98.3395H148.508C151.238 98.3395 153.314 97.8055 154.731 96.7397C156.17 95.651 156.885 94.159 156.885 92.2681C156.885 90.3772 156.222 89.0456 154.884 88.083L154.886 88.0807ZM142.843 80.4691H147.495C148.584 80.4691 149.402 80.6914 149.957 81.1429C150.511 81.5784 150.791 82.2247 150.791 83.0865C150.791 83.9483 150.511 84.6106 149.957 85.0599C149.402 85.4908 148.584 85.7085 147.495 85.7085H142.843V80.4714V80.4691ZM150.944 93.9596C150.349 94.4157 149.473 94.638 148.323 94.638H142.843V89.1877H148.323C149.473 89.1877 150.349 89.41 150.944 89.8615C151.54 90.297 151.836 90.964 151.836 91.867C151.836 92.77 151.54 93.508 150.944 93.9596Z" fill="white"/>
</svg>
